<mxfile host="app.diagrams.net" modified="2021-05-08T14:36:02.930Z" agent="5.0 (X11; Linux x86_64) AppleWebKit/537.36 (KHTML, like Gecko) Chrome/88.0.4324.182 Safari/537.36" etag="92Pq1IHQk-rbPQOoSr7g" version="14.5.9" type="github">
  <diagram id="R2lEEEUBdFMjLlhIrx00" name="Page-1">
    <mxGraphModel dx="136" dy="1691" grid="1" gridSize="10" guides="1" tooltips="1" connect="1" arrows="1" fold="1" page="1" pageScale="1" pageWidth="850" pageHeight="1100" math="0" shadow="0" extFonts="Permanent Marker^https://fonts.googleapis.com/css?family=Permanent+Marker">
      <root>
        <mxCell id="0" />
        <mxCell id="1" parent="0" />
        <mxCell id="kt-wemDMzhkv7Ol8r1fz-1" value="Users" style="shape=table;startSize=30;container=1;collapsible=1;childLayout=tableLayout;fixedRows=1;rowLines=0;fontStyle=1;align=center;resizeLast=1;" parent="1" vertex="1">
          <mxGeometry x="1360" y="-480" width="300" height="190" as="geometry" />
        </mxCell>
        <mxCell id="kt-wemDMzhkv7Ol8r1fz-2" value="" style="shape=partialRectangle;collapsible=0;dropTarget=0;pointerEvents=0;fillColor=none;points=[[0,0.5],[1,0.5]];portConstraint=eastwest;top=0;left=0;right=0;bottom=1;" parent="kt-wemDMzhkv7Ol8r1fz-1" vertex="1">
          <mxGeometry y="30" width="300" height="30" as="geometry" />
        </mxCell>
        <mxCell id="kt-wemDMzhkv7Ol8r1fz-3" value="PK" style="shape=partialRectangle;overflow=hidden;connectable=0;fillColor=none;top=0;left=0;bottom=0;right=0;fontStyle=1;" parent="kt-wemDMzhkv7Ol8r1fz-2" vertex="1">
          <mxGeometry width="30" height="30" as="geometry" />
        </mxCell>
        <mxCell id="kt-wemDMzhkv7Ol8r1fz-4" value="id Integer NOT NULL" style="shape=partialRectangle;overflow=hidden;connectable=0;fillColor=none;top=0;left=0;bottom=0;right=0;align=left;spacingLeft=6;fontStyle=5;" parent="kt-wemDMzhkv7Ol8r1fz-2" vertex="1">
          <mxGeometry x="30" width="270" height="30" as="geometry" />
        </mxCell>
        <mxCell id="kt-wemDMzhkv7Ol8r1fz-5" value="" style="shape=partialRectangle;collapsible=0;dropTarget=0;pointerEvents=0;fillColor=none;points=[[0,0.5],[1,0.5]];portConstraint=eastwest;top=0;left=0;right=0;bottom=0;" parent="kt-wemDMzhkv7Ol8r1fz-1" vertex="1">
          <mxGeometry y="60" width="300" height="30" as="geometry" />
        </mxCell>
        <mxCell id="kt-wemDMzhkv7Ol8r1fz-6" value="" style="shape=partialRectangle;overflow=hidden;connectable=0;fillColor=none;top=0;left=0;bottom=0;right=0;" parent="kt-wemDMzhkv7Ol8r1fz-5" vertex="1">
          <mxGeometry width="30" height="30" as="geometry" />
        </mxCell>
        <mxCell id="kt-wemDMzhkv7Ol8r1fz-7" value="email VARCHAR NOT NULL" style="shape=partialRectangle;overflow=hidden;connectable=0;fillColor=none;top=0;left=0;bottom=0;right=0;align=left;spacingLeft=6;" parent="kt-wemDMzhkv7Ol8r1fz-5" vertex="1">
          <mxGeometry x="30" width="270" height="30" as="geometry" />
        </mxCell>
        <mxCell id="kt-wemDMzhkv7Ol8r1fz-8" value="" style="shape=partialRectangle;collapsible=0;dropTarget=0;pointerEvents=0;fillColor=none;points=[[0,0.5],[1,0.5]];portConstraint=eastwest;top=0;left=0;right=0;bottom=0;" parent="kt-wemDMzhkv7Ol8r1fz-1" vertex="1">
          <mxGeometry y="90" width="300" height="30" as="geometry" />
        </mxCell>
        <mxCell id="kt-wemDMzhkv7Ol8r1fz-9" value="" style="shape=partialRectangle;overflow=hidden;connectable=0;fillColor=none;top=0;left=0;bottom=0;right=0;" parent="kt-wemDMzhkv7Ol8r1fz-8" vertex="1">
          <mxGeometry width="30" height="30" as="geometry" />
        </mxCell>
        <mxCell id="kt-wemDMzhkv7Ol8r1fz-10" value="password VARCHAR NOT NULL" style="shape=partialRectangle;overflow=hidden;connectable=0;fillColor=none;top=0;left=0;bottom=0;right=0;align=left;spacingLeft=6;" parent="kt-wemDMzhkv7Ol8r1fz-8" vertex="1">
          <mxGeometry x="30" width="270" height="30" as="geometry" />
        </mxCell>
        <mxCell id="kt-wemDMzhkv7Ol8r1fz-47" value="" style="shape=partialRectangle;collapsible=0;dropTarget=0;pointerEvents=0;fillColor=none;points=[[0,0.5],[1,0.5]];portConstraint=eastwest;top=0;left=0;right=0;bottom=0;" parent="kt-wemDMzhkv7Ol8r1fz-1" vertex="1">
          <mxGeometry y="120" width="300" height="30" as="geometry" />
        </mxCell>
        <mxCell id="kt-wemDMzhkv7Ol8r1fz-48" value="" style="shape=partialRectangle;overflow=hidden;connectable=0;fillColor=none;top=0;left=0;bottom=0;right=0;" parent="kt-wemDMzhkv7Ol8r1fz-47" vertex="1">
          <mxGeometry width="30" height="30" as="geometry" />
        </mxCell>
        <mxCell id="kt-wemDMzhkv7Ol8r1fz-49" value="imageLink  VARCHAR" style="shape=partialRectangle;overflow=hidden;connectable=0;fillColor=none;top=0;left=0;bottom=0;right=0;align=left;spacingLeft=6;" parent="kt-wemDMzhkv7Ol8r1fz-47" vertex="1">
          <mxGeometry x="30" width="270" height="30" as="geometry" />
        </mxCell>
        <mxCell id="kt-wemDMzhkv7Ol8r1fz-69" value="" style="shape=partialRectangle;collapsible=0;dropTarget=0;pointerEvents=0;fillColor=none;points=[[0,0.5],[1,0.5]];portConstraint=eastwest;top=0;left=0;right=0;bottom=0;" parent="kt-wemDMzhkv7Ol8r1fz-1" vertex="1">
          <mxGeometry y="150" width="300" height="30" as="geometry" />
        </mxCell>
        <mxCell id="kt-wemDMzhkv7Ol8r1fz-70" value="" style="shape=partialRectangle;overflow=hidden;connectable=0;fillColor=none;top=0;left=0;bottom=0;right=0;" parent="kt-wemDMzhkv7Ol8r1fz-69" vertex="1">
          <mxGeometry width="30" height="30" as="geometry" />
        </mxCell>
        <mxCell id="kt-wemDMzhkv7Ol8r1fz-71" value="userCategory VARCHAR" style="shape=partialRectangle;overflow=hidden;connectable=0;fillColor=none;top=0;left=0;bottom=0;right=0;align=left;spacingLeft=6;" parent="kt-wemDMzhkv7Ol8r1fz-69" vertex="1">
          <mxGeometry x="30" width="270" height="30" as="geometry" />
        </mxCell>
        <mxCell id="__loqiuG1g3OFJKX4cZz-1" value="Project" style="shape=table;startSize=30;container=1;collapsible=1;childLayout=tableLayout;fixedRows=1;rowLines=0;fontStyle=1;align=center;resizeLast=1;" vertex="1" parent="1">
          <mxGeometry x="930" y="-330" width="300" height="160" as="geometry" />
        </mxCell>
        <mxCell id="__loqiuG1g3OFJKX4cZz-2" value="" style="shape=partialRectangle;collapsible=0;dropTarget=0;pointerEvents=0;fillColor=none;points=[[0,0.5],[1,0.5]];portConstraint=eastwest;top=0;left=0;right=0;bottom=1;" vertex="1" parent="__loqiuG1g3OFJKX4cZz-1">
          <mxGeometry y="30" width="300" height="30" as="geometry" />
        </mxCell>
        <mxCell id="__loqiuG1g3OFJKX4cZz-3" value="PK" style="shape=partialRectangle;overflow=hidden;connectable=0;fillColor=none;top=0;left=0;bottom=0;right=0;fontStyle=1;" vertex="1" parent="__loqiuG1g3OFJKX4cZz-2">
          <mxGeometry width="30" height="30" as="geometry" />
        </mxCell>
        <mxCell id="__loqiuG1g3OFJKX4cZz-4" value="id Integer NOT NULL" style="shape=partialRectangle;overflow=hidden;connectable=0;fillColor=none;top=0;left=0;bottom=0;right=0;align=left;spacingLeft=6;fontStyle=5;" vertex="1" parent="__loqiuG1g3OFJKX4cZz-2">
          <mxGeometry x="30" width="270" height="30" as="geometry" />
        </mxCell>
        <mxCell id="__loqiuG1g3OFJKX4cZz-5" value="" style="shape=partialRectangle;collapsible=0;dropTarget=0;pointerEvents=0;fillColor=none;points=[[0,0.5],[1,0.5]];portConstraint=eastwest;top=0;left=0;right=0;bottom=0;" vertex="1" parent="__loqiuG1g3OFJKX4cZz-1">
          <mxGeometry y="60" width="300" height="30" as="geometry" />
        </mxCell>
        <mxCell id="__loqiuG1g3OFJKX4cZz-6" value="" style="shape=partialRectangle;overflow=hidden;connectable=0;fillColor=none;top=0;left=0;bottom=0;right=0;" vertex="1" parent="__loqiuG1g3OFJKX4cZz-5">
          <mxGeometry width="30" height="30" as="geometry" />
        </mxCell>
        <mxCell id="__loqiuG1g3OFJKX4cZz-7" value="name VARCHAR NOT NULL" style="shape=partialRectangle;overflow=hidden;connectable=0;fillColor=none;top=0;left=0;bottom=0;right=0;align=left;spacingLeft=6;" vertex="1" parent="__loqiuG1g3OFJKX4cZz-5">
          <mxGeometry x="30" width="270" height="30" as="geometry" />
        </mxCell>
        <mxCell id="__loqiuG1g3OFJKX4cZz-11" value="" style="shape=partialRectangle;collapsible=0;dropTarget=0;pointerEvents=0;fillColor=none;points=[[0,0.5],[1,0.5]];portConstraint=eastwest;top=0;left=0;right=0;bottom=0;" vertex="1" parent="__loqiuG1g3OFJKX4cZz-1">
          <mxGeometry y="90" width="300" height="30" as="geometry" />
        </mxCell>
        <mxCell id="__loqiuG1g3OFJKX4cZz-12" value="" style="shape=partialRectangle;overflow=hidden;connectable=0;fillColor=none;top=0;left=0;bottom=0;right=0;" vertex="1" parent="__loqiuG1g3OFJKX4cZz-11">
          <mxGeometry width="30" height="30" as="geometry" />
        </mxCell>
        <mxCell id="__loqiuG1g3OFJKX4cZz-13" value="logoLink  VARCHAR" style="shape=partialRectangle;overflow=hidden;connectable=0;fillColor=none;top=0;left=0;bottom=0;right=0;align=left;spacingLeft=6;" vertex="1" parent="__loqiuG1g3OFJKX4cZz-11">
          <mxGeometry x="30" width="270" height="30" as="geometry" />
        </mxCell>
        <mxCell id="__loqiuG1g3OFJKX4cZz-58" value="" style="shape=partialRectangle;collapsible=0;dropTarget=0;pointerEvents=0;fillColor=none;points=[[0,0.5],[1,0.5]];portConstraint=eastwest;top=0;left=0;right=0;bottom=0;" vertex="1" parent="__loqiuG1g3OFJKX4cZz-1">
          <mxGeometry y="120" width="300" height="30" as="geometry" />
        </mxCell>
        <mxCell id="__loqiuG1g3OFJKX4cZz-59" value="" style="shape=partialRectangle;overflow=hidden;connectable=0;fillColor=none;top=0;left=0;bottom=0;right=0;" vertex="1" parent="__loqiuG1g3OFJKX4cZz-58">
          <mxGeometry width="30" height="30" as="geometry" />
        </mxCell>
        <mxCell id="__loqiuG1g3OFJKX4cZz-60" value="owner&#xa;  Integer NOT NULL" style="shape=partialRectangle;overflow=hidden;connectable=0;fillColor=none;top=0;left=0;bottom=0;right=0;align=left;spacingLeft=6;" vertex="1" parent="__loqiuG1g3OFJKX4cZz-58">
          <mxGeometry x="30" width="270" height="30" as="geometry" />
        </mxCell>
        <mxCell id="__loqiuG1g3OFJKX4cZz-23" value="Traverse" style="shape=table;startSize=30;container=1;collapsible=1;childLayout=tableLayout;fixedRows=1;rowLines=0;fontStyle=1;align=center;resizeLast=1;" vertex="1" parent="1">
          <mxGeometry x="1370" y="-240" width="300" height="220" as="geometry" />
        </mxCell>
        <mxCell id="__loqiuG1g3OFJKX4cZz-24" value="" style="shape=partialRectangle;collapsible=0;dropTarget=0;pointerEvents=0;fillColor=none;points=[[0,0.5],[1,0.5]];portConstraint=eastwest;top=0;left=0;right=0;bottom=1;" vertex="1" parent="__loqiuG1g3OFJKX4cZz-23">
          <mxGeometry y="30" width="300" height="30" as="geometry" />
        </mxCell>
        <mxCell id="__loqiuG1g3OFJKX4cZz-25" value="PK" style="shape=partialRectangle;overflow=hidden;connectable=0;fillColor=none;top=0;left=0;bottom=0;right=0;fontStyle=1;" vertex="1" parent="__loqiuG1g3OFJKX4cZz-24">
          <mxGeometry width="30" height="30" as="geometry" />
        </mxCell>
        <mxCell id="__loqiuG1g3OFJKX4cZz-26" value="id Integer NOT NULL" style="shape=partialRectangle;overflow=hidden;connectable=0;fillColor=none;top=0;left=0;bottom=0;right=0;align=left;spacingLeft=6;fontStyle=5;" vertex="1" parent="__loqiuG1g3OFJKX4cZz-24">
          <mxGeometry x="30" width="270" height="30" as="geometry" />
        </mxCell>
        <mxCell id="__loqiuG1g3OFJKX4cZz-30" value="" style="shape=partialRectangle;collapsible=0;dropTarget=0;pointerEvents=0;fillColor=none;points=[[0,0.5],[1,0.5]];portConstraint=eastwest;top=0;left=0;right=0;bottom=0;" vertex="1" parent="__loqiuG1g3OFJKX4cZz-23">
          <mxGeometry y="60" width="300" height="30" as="geometry" />
        </mxCell>
        <mxCell id="__loqiuG1g3OFJKX4cZz-31" value="" style="shape=partialRectangle;overflow=hidden;connectable=0;fillColor=none;top=0;left=0;bottom=0;right=0;" vertex="1" parent="__loqiuG1g3OFJKX4cZz-30">
          <mxGeometry width="30" height="30" as="geometry" />
        </mxCell>
        <mxCell id="__loqiuG1g3OFJKX4cZz-32" value="amount double NOT NULL" style="shape=partialRectangle;overflow=hidden;connectable=0;fillColor=none;top=0;left=0;bottom=0;right=0;align=left;spacingLeft=6;" vertex="1" parent="__loqiuG1g3OFJKX4cZz-30">
          <mxGeometry x="30" width="270" height="30" as="geometry" />
        </mxCell>
        <mxCell id="__loqiuG1g3OFJKX4cZz-27" value="" style="shape=partialRectangle;collapsible=0;dropTarget=0;pointerEvents=0;fillColor=none;points=[[0,0.5],[1,0.5]];portConstraint=eastwest;top=0;left=0;right=0;bottom=0;" vertex="1" parent="__loqiuG1g3OFJKX4cZz-23">
          <mxGeometry y="90" width="300" height="30" as="geometry" />
        </mxCell>
        <mxCell id="__loqiuG1g3OFJKX4cZz-28" value="" style="shape=partialRectangle;overflow=hidden;connectable=0;fillColor=none;top=0;left=0;bottom=0;right=0;" vertex="1" parent="__loqiuG1g3OFJKX4cZz-27">
          <mxGeometry width="30" height="30" as="geometry" />
        </mxCell>
        <mxCell id="__loqiuG1g3OFJKX4cZz-29" value="kind VARCHAR NOT NULL" style="shape=partialRectangle;overflow=hidden;connectable=0;fillColor=none;top=0;left=0;bottom=0;right=0;align=left;spacingLeft=6;" vertex="1" parent="__loqiuG1g3OFJKX4cZz-27">
          <mxGeometry x="30" width="270" height="30" as="geometry" />
        </mxCell>
        <mxCell id="__loqiuG1g3OFJKX4cZz-33" value="" style="shape=partialRectangle;collapsible=0;dropTarget=0;pointerEvents=0;fillColor=none;points=[[0,0.5],[1,0.5]];portConstraint=eastwest;top=0;left=0;right=0;bottom=0;" vertex="1" parent="__loqiuG1g3OFJKX4cZz-23">
          <mxGeometry y="120" width="300" height="30" as="geometry" />
        </mxCell>
        <mxCell id="__loqiuG1g3OFJKX4cZz-34" value="" style="shape=partialRectangle;overflow=hidden;connectable=0;fillColor=none;top=0;left=0;bottom=0;right=0;" vertex="1" parent="__loqiuG1g3OFJKX4cZz-33">
          <mxGeometry width="30" height="30" as="geometry" />
        </mxCell>
        <mxCell id="__loqiuG1g3OFJKX4cZz-35" value="notes VARCHAR NOT NULL" style="shape=partialRectangle;overflow=hidden;connectable=0;fillColor=none;top=0;left=0;bottom=0;right=0;align=left;spacingLeft=6;" vertex="1" parent="__loqiuG1g3OFJKX4cZz-33">
          <mxGeometry x="30" width="270" height="30" as="geometry" />
        </mxCell>
        <mxCell id="__loqiuG1g3OFJKX4cZz-36" value="" style="shape=partialRectangle;collapsible=0;dropTarget=0;pointerEvents=0;fillColor=none;points=[[0,0.5],[1,0.5]];portConstraint=eastwest;top=0;left=0;right=0;bottom=0;" vertex="1" parent="__loqiuG1g3OFJKX4cZz-23">
          <mxGeometry y="150" width="300" height="30" as="geometry" />
        </mxCell>
        <mxCell id="__loqiuG1g3OFJKX4cZz-37" value="" style="shape=partialRectangle;overflow=hidden;connectable=0;fillColor=none;top=0;left=0;bottom=0;right=0;" vertex="1" parent="__loqiuG1g3OFJKX4cZz-36">
          <mxGeometry width="30" height="30" as="geometry" />
        </mxCell>
        <mxCell id="__loqiuG1g3OFJKX4cZz-38" value="actionUser Integer NOT NULL" style="shape=partialRectangle;overflow=hidden;connectable=0;fillColor=none;top=0;left=0;bottom=0;right=0;align=left;spacingLeft=6;fontStyle=0" vertex="1" parent="__loqiuG1g3OFJKX4cZz-36">
          <mxGeometry x="30" width="270" height="30" as="geometry" />
        </mxCell>
        <mxCell id="__loqiuG1g3OFJKX4cZz-55" value="" style="shape=partialRectangle;collapsible=0;dropTarget=0;pointerEvents=0;fillColor=none;points=[[0,0.5],[1,0.5]];portConstraint=eastwest;top=0;left=0;right=0;bottom=0;" vertex="1" parent="__loqiuG1g3OFJKX4cZz-23">
          <mxGeometry y="180" width="300" height="30" as="geometry" />
        </mxCell>
        <mxCell id="__loqiuG1g3OFJKX4cZz-56" value="" style="shape=partialRectangle;overflow=hidden;connectable=0;fillColor=none;top=0;left=0;bottom=0;right=0;" vertex="1" parent="__loqiuG1g3OFJKX4cZz-55">
          <mxGeometry width="30" height="30" as="geometry" />
        </mxCell>
        <mxCell id="__loqiuG1g3OFJKX4cZz-57" value="projectId Integer NOT NULL" style="shape=partialRectangle;overflow=hidden;connectable=0;fillColor=none;top=0;left=0;bottom=0;right=0;align=left;spacingLeft=6;fontStyle=0" vertex="1" parent="__loqiuG1g3OFJKX4cZz-55">
          <mxGeometry x="30" width="270" height="30" as="geometry" />
        </mxCell>
      </root>
    </mxGraphModel>
  </diagram>
</mxfile>
